<svg xmlns="http://www.w3.org/2000/svg" width="52" height="52" viewBox="0 0 52 52"><path fill="#fff" d="M37.6 11.7c-1.5.5-2.8 1-3.7 1.4-.8.4-1.7.9-2.8 1.6.1 1.9.1 3.5 0 4.8-.1 1.3-.4 3.1-.8 5.6 2.8 2 4.9 3.6 6.1 4.6.2.1.7.6.9.8l4.3-1.8.1-.1c.6-1.4 1.1-3.2 1.5-5.5.3-1.9.4-4 .2-6.3l-5.8-5.1zM36.1 9l-.1-.3C33.1 7 29.6 6 26 6c-2 0-3.9.3-5.7.8v2.7c1.7.2 3.1.5 4.3.9 1.2.4 2.7 1.1 4.5 2 1.4-.9 2.5-1.5 3.5-2 .9-.4 2.1-.9 3.5-1.4zM22.2 43c3.6-.4 6-.8 7.3-1.1 1.4-.4 2.7-.7 3.8-1.1.9-2 1.4-3.5 1.7-4.6.2-.8.4-1.9.6-3.3-.4-.3-.8-.6-1.1-.9-1.2-1-3.4-2.6-6.3-4.8-1.4.9-2.6 1.4-3.7 1.7-1.1.3-2.8.6-5.2.9-.9 1.8-1.5 3.3-1.7 4.4-.3 1-.5 2.5-.7 4.4.9 1.1 1.6 1.8 2.2 2.3.6.5 1.7 1.2 3.1 2zM9.4 37.4H14c.2-1.6.4-2.9.7-3.9.2-1.2.8-2.7 1.6-4.4-1.1-1.3-2.4-2.8-3-3.7-.5-.9-1.3-1.8-2.2-3.9-.4 0-.9.1-1.3.2-1.1.4-2.3 1.1-3.7 2-.1.8-.1 1.6-.1 2.4 0 4.2 1.3 8 3.4 11.3zm35.9-6.1c.5-1.7.7-3.4.7-5.2v-1.4c-.4 1.7-.8 3.1-1.3 4.4.2.2.3.5.4.8.1.3.2.8.2 1.4zM10.6 18.5l.1-.2c1.4-2.3 2.5-3.9 3.3-4.9.7-.9 1.9-1.9 3.4-3.2-.1-.8-.1-1.6-.1-2.2-4.8 2.3-8.5 6.5-10.3 11.7.7-.3 1.3-.6 1.9-.8.5-.2 1.1-.3 1.7-.4zm26.6 24.3c-1.8.6-4.1 1.2-7 2-1.4.4-3.9.7-7.6 1.1 1.1.2 2.3.3 3.4.3 4.1 0 8-1.3 11.2-3.4zM50 26.1c0 13.3-10.8 24.1-24 24.1S2 39.4 2 26.1 12.8 2 26 2s24 10.8 24 24.1z M0.996 0.996"/></svg>