<svg xmlns="http://www.w3.org/2000/svg" width="52" height="52" viewBox="0 0 52 52"><path d="M22.5 5.1h-17c-.8 0-1.5.7-1.5 1.5v15.9c0 .8.7 1.5 1.5 1.5h17c.8 0 1.5-.7 1.5-1.5V6.6c0-.8-.7-1.5-1.5-1.5zm-2.6 8.2H8.1V9.2h11.8v4.1zm26.6-8.2h-17c-.8 0-1.5.7-1.5 1.5v15.9c0 .8.7 1.5 1.5 1.5h17c.8 0 1.5-.7 1.5-1.5V6.6c0-.8-.7-1.5-1.5-1.5zm-2.6 8.2H32.1V9.2h11.8v4.1zM22.5 28h-17c-.8 0-1.5.7-1.5 1.5v15.9c0 .8.7 1.5 1.5 1.5h17c.8 0 1.5-.7 1.5-1.5V29.5c0-.8-.7-1.5-1.5-1.5zm-2.6 8.2H8.1v-4.1h11.8v4.1zM46.5 28h-17c-.8 0-1.5.7-1.5 1.5v15.9c0 .8.7 1.5 1.5 1.5h17c.8 0 1.5-.7 1.5-1.5V29.5c0-.8-.7-1.5-1.5-1.5zm-2.6 8.2H32.1v-4.1h11.8v4.1z M0.992 0.992" fill="#fff"/></svg>