<svg xmlns="http://www.w3.org/2000/svg" width="52" height="52" viewBox="0 0 52 52"><path fill="#fff" d="M17.4 4.6c2.7-1 5.6-1.5 8.6-1.5s5.9.5 8.6 1.5C35.5 3.1 37.1 2 39 2c2.8 0 5 2.2 5 5 0 .8-.2 1.6-.5 2.3 1.2 1 2 4.3 2.5 9.7.4 3 3 12.1 3 14 .1 8-7.6 13.6-23 17-15.3-3.3-23-9-23-17 0-2.1 2.5-10.9 3-14 .6-5.3 1.5-8.5 2.6-9.6C8.2 8.7 8 7.9 8 7c0-2.8 2.2-5 5-5 1.9 0 3.5 1.1 4.4 2.6zM21 22.7c-1.8.5-2.9 2.2-2.8 4.1l.4 6.2c.2 3.9 3.5 7 7.4 7 3.9 0 7.2-3.1 7.4-7l.4-6.1c.1-1.9-1-3.5-2.8-4.1-1.8-.5-3.6-.8-5.4-.8-1.6 0-3.2.2-4.6.7zm15 .3c1.7 0 3-1.8 3-4s-1.3-4-3-4-3 1.8-3 4 1.3 4 3 4zm-20 0c1.7 0 3-1.8 3-4s-1.3-4-3-4-3 1.8-3 4 1.3 4 3 4zm13.1 4.7c-1.8 2-4.7 2-6.4 0-1.7-2-.3-3.7 3.2-3.7s4.9 1.7 3.2 3.7z M0.964 0.964"/></svg>