<svg xmlns="http://www.w3.org/2000/svg" width="52" height="52" viewBox="0 0 52 52"><path d="M32.3 15.1h6.1c.3 0 .5-.4.3-.7L32.3 8c-.3-.2-.7 0-.7.3v6.1c-.1.4.2.7.7.7zM32 26.5c2-2 4.6-3.2 7.2-3.5v-4c0-.5-.3-.8-.8-.8h-8.5c-.9 0-1.6-.7-1.6-1.6V8.1c0-.5-.3-.8-.8-.8H17.1c-.6 0-1.2.5-1.2 1.2v3.1c0 .3.2.6.3.9l4.3 4.3c.6.6 1.1 1.5 1.2 2.4.2 1.2-.2 2.4-1.1 3.3l-1.2 1.1c-.4.4-.8.6-1.2.9.5.2 1.2.4 1.8.5 2 .2 3.6 1.9 3.6 4v1.7c0 1.1-.5 2.2-1.3 2.9-.8.8-1.9 1.1-3 1-.9-.1-1.6-.2-2.5-.4-.5-.2-.9.2-.9.8v2.4c0 .6.5 1.2 1.2 1.2h11.6c-1-4.3.1-8.8 3.3-12.1zm-11.4 4v-1.7c0-.5-.4-.8-.9-.9-4.2-.4-7.7-4-7.7-8.4v-.9c0-.5.6-.8.9-.4l3.1 3.1c.3.3.9.3 1.2 0l1.2-1.2c.3-.3.3-.9 0-1.2l-7.5-7.5c-.3-.3-.9-.3-1.2 0L2.2 19c-.3.3-.3.9 0 1.2l1.2 1.2c.3.3.9.4 1.2.1l3.3-3.1c.4-.4 1.1-.1 1.1.4v1.5c0 5.6 4.9 10.7 10.8 11.2.4-.1.8-.5.8-1z M0.8839999999999999 0.8839999999999999" fill="#fff"/><path fill="#fff" d="M47.4 28.8c-3.6-3.6-9.5-3.6-13.2 0-3.6 3.6-3.6 9.5 0 13.2 3.6 3.6 9.5 3.6 13.2 0 3.7-3.7 3.7-9.6 0-13.2zM44.7 37c.3.3.3.9-.1 1.2l-1.1 1.1c-.3.3-.7.3-1-.1l-1.6-1.6-1.7 1.7c-.3.3-.7.3-1-.1L37 38.1c-.3-.3-.4-.7-.1-1l1.7-1.7-1.6-1.7c-.3-.3-.4-.7-.1-1l1.1-1.1c.3-.3.9-.4 1.2-.1l1.6 1.6 1.6-1.6c.3-.3.9-.4 1.2-.1l1.1 1.1c.3.3.3.9-.1 1.2L43 35.3l1.7 1.7z"/></svg>