<svg xmlns="http://www.w3.org/2000/svg" width="52" height="52" viewBox="0 0 52 52"><path d="M27.4 32.5c-1.1-.6-2.4-1.2-3.7-1.7-2.5-1-3-1.9-3-3 0-1 .7-1.9 1.5-2.7 1.5-1.3 2.2-3.3 2.2-5.4 0-4-2.5-7.2-7-7.2-4.6 0-7 3.2-7 7.2 0 2.1.7 4.1 2.2 5.4.8.8 1.5 1.7 1.5 2.7 0 1-.4 1.9-3 3C7.5 32.3 4 34 3.9 37.2c.2 2.2 1.9 4.1 4 4.1h16.4c0-3.2 1-6.3 3.1-8.8zm-.5-21.7v-3c4 0 7.2 3.2 7.2 7.2h-3l4.6 5.7c.3.3.7.3.9 0l4.6-5.7h-3c0-6.3-5.2-11.4-11.4-11.4v-3l-5.7 4.6c-.3.3-.2.7.1.9l5.7 4.7zM45.1 34c-4-4-10.4-4-14.4 0s-4 10.4 0 14.4 10.4 4 14.4 0 4-10.5 0-14.4zm-3 8.9c.3.3.3.9-.1 1.3l-1.2 1.2c-.3.3-.8.3-1.1-.1L38 43.5l-1.9 1.9c-.3.3-.8.3-1.1-.1l-1.3-1.2c-.3-.3-.4-.8-.1-1.1l1.9-1.9-1.8-1.9c-.3-.3-.4-.8-.1-1.1l1.2-1.2c.3-.3.9-.4 1.3-.1l1.8 1.8 1.8-1.8c.3-.3.9-.4 1.3-.1l1.2 1.2c.3.3.3.9-.1 1.3L40.3 41l1.8 1.9z M0.8809999999999999 0.8809999999999999" fill="#fff"/></svg>