<svg xmlns="http://www.w3.org/2000/svg" width="52" height="52" viewBox="0 0 52 52"><path fill="#fff" d="M4.1 43.1H48c.9 0 1.6.7 1.6 1.6v3.1c0 .9-.7 1.6-1.6 1.6H4.1c-.9 0-1.6-.7-1.6-1.6v-3.1c0-.9.7-1.6 1.6-1.6zm0-14.1H48c.9 0 1.6.7 1.6 1.6v3.1c0 .9-.7 1.6-1.6 1.6H4.1c-.9 0-1.6-.7-1.6-1.6v-3.1c0-.9.7-1.6 1.6-1.6zM32 14.9h16c.9 0 1.6.7 1.6 1.6v3.1c0 .9-.7 1.6-1.6 1.6H32c-.9 0-1.6-.7-1.6-1.6v-3.1c0-.9.7-1.6 1.6-1.6zm-7.9 6.7L16.7 3.3c-.2-.3-.5-.6-.9-.6h-5.7c-.3 0-.7.2-.8.6L2.5 21.6c-.1.3.1.8.5.8h3.6c.3 0 .7-.3.8-.6l1.4-3.9h8.7l1.5 3.9c.1.3.5.6.8.6h3.6c.5 0 .8-.4.7-.8zm-13.6-8.5l2.3-5.8h.5l2.5 5.8h-5.3z M0.6499999999999997 0.6499999999999997"/></svg>