<svg xmlns="http://www.w3.org/2000/svg" width="52" height="52" viewBox="0 0 52 52"><path fill-rule="evenodd" clip-rule="evenodd" fill="#fff" d="M49.9 28.5c-1-2.4-2.1-4.2-3.3-5.6-1.1-1.3-4.3-3.2-6.1-3.9.5-.7 1.5-1.2 3-1.5-.1-1-1.1-2.1-3-3.3-1.9-1.2-4.5-1.5-7.8-.8 0-1.2-.8-3.3-2.5-6.4C27.8 2.3 17.9.8 18 3c.9 2.7 1.3 6.2 1.4 10.3-1.2-1.4-2.5-2.3-3.9-2.7-1.1-.3-2.1-.4-3.1-.2-.1 0-.2.1-.3.1-.3.2-.3.7-.1 1 .6.8.9 1.4 1.1 1.8.2.6.6 1.4 1.1 2.6-1.5-.2-3.4.3-6 1.5-2.4 1.2-4.4 3.9-6.1 8.2v.2c0 .4.2.7.5.8 2.3.4 3.9.8 4.8 1.3 1 .5 2.1 1.6 3.4 3.1-.5-.1-1.3.4-2.5 1.5-1.1.9-1.9 2.3-2.4 4.3v.2c0 .4.2.7.6.7 1.7.1 3.4.4 5 .9 1.8.6 3.2 1.2 4.2 1.9v-5.8c0-1.4-.1-2.5 1.3-4.2 1.4-1.7 2.8-2.1 6.1-.8s7-1.4 9.9-.7c3 .7 4.5 3.7 4.8 5.8.3 2.1 0 3.2 0 5.8v.4h.1c1.5-.9 2.3-1.4 3.5-1.9.8-.4 2.1-.8 3.8-1.4-.1-1-.9-1.9-2.5-2.9.5-.2 2.8-1.7 4.1-2.7.8-.6 1.8-1.5 3.1-2.8.1-.1.2-.5 0-.8z M0.5759999999999996 0.5759999999999996"/><path fill-rule="evenodd" clip-rule="evenodd" fill="#fff" d="M22.9 42.5c-.9-.5-2.3-.3-3.1.1-.8.4-1.8 1.6-1.8 2.7s.3 1.8.5 2.2c.1.3.4.6.8 1.1.1.2.3.2.5.2l1.4-.3 3 1.4c.1.1.3.1.4 0l3.3-1.4 1.7.3c.1 0 .3 0 .4-.1.8-.5 1.3-1.2 1.6-1.9.4-1.2 0-3.1-1-3.9-.9-.9-2.3-1.2-3.7-.6-1.1.4-1.9.6-2.5.6-.4 0-.8-.2-1.5-.4z"/><ellipse fill-rule="evenodd" clip-rule="evenodd" fill="#fff" cx="29.3" cy="38.4" rx="1.5" ry="2.2"/><ellipse fill-rule="evenodd" clip-rule="evenodd" fill="#fff" cx="20.7" cy="38.4" rx="1.5" ry="2.2"/></svg>