<svg xmlns="http://www.w3.org/2000/svg" width="52" height="52" viewBox="0 0 52 52"><path d="M28.3 30.2c4.4-4.4 10.9-5.3 16.2-2.9.8-2.1 1.2-4.3 1.2-6.6C45.6 9.7 36 .9 24.2.9 12.3.9 2.9 9.7 2.9 20.5c0 3.4 1 6.6 2.6 9.5.3.4.4 1 .2 1.5l-2.8 7.6c-.3.7.4 1.3 1.2 1.2l7.7-2.9c.4-.2 1-.1 1.5.2 3.1 1.7 6.8 2.8 10.8 2.8-.1-3.8 1.4-7.4 4.2-10.2zM35 17c2 0 3.6 1.6 3.6 3.6S37 24.2 35 24.2s-3.6-1.6-3.6-3.6S33 17 35 17zm-21.5 7.2c-2 0-3.6-1.6-3.6-3.6s1.6-3.6 3.6-3.6 3.6 1.6 3.6 3.6-1.6 3.6-3.6 3.6zM24.2 17c2 0 3.6 1.6 3.6 3.6s-1.6 3.6-3.6 3.6-3.6-1.6-3.6-3.6 1.7-3.6 3.6-3.6zM46 32.7c-4.2-4.2-11-4.2-15.2 0s-4.2 11 0 15.2 11 4.2 15.2 0 4.2-11 0-15.2zm-3.1 9.5c.4.4.4 1-.1 1.3l-1.3 1.3c-.4.4-.8.4-1.2-.1l-1.9-1.9-2 2c-.4.4-.8.4-1.2-.1l-1.3-1.3c-.4-.4-.4-.8-.1-1.2l2-2-1.9-2c-.4-.4-.4-.8-.1-1.2l1.3-1.3c.4-.4 1-.4 1.3-.1l1.9 1.9 1.9-1.9c.4-.4 1-.4 1.3-.1l1.3 1.3c.4.4.4 1-.1 1.3L40.8 40l2.1 2.2z M0.7209999999999998 0.7209999999999998" fill="#fff"/></svg>