<svg xmlns="http://www.w3.org/2000/svg" viewBox="0 0 52 52" width="52" height="52"><path fill="#fff" d="M48 9.5c0-.8-.7-1.5-1.5-1.5h-41C4.7 8 4 8.7 4 9.5v3c0 .8.7 1.5 1.5 1.5h41c.8 0 1.5-.7 1.5-1.5v-3zm0 30c0-.8-.7-1.5-1.5-1.5h-41c-.8 0-1.5.7-1.5 1.5v3c0 .8.7 1.5 1.5 1.5h41c.8 0 1.5-.7 1.5-1.5v-3zM30 29h4.5c.8 0 1.5-.7 1.5-1.5v-3c0-.8-.7-1.5-1.5-1.5H30c-.6 0-1-.4-1-1v-4.5c0-.8-.7-1.5-1.5-1.5h-3c-.8 0-1.5.7-1.5 1.5V22c0 .6-.4 1-1 1h-4.5c-.8 0-1.5.7-1.5 1.5v3c0 .8.7 1.5 1.5 1.5H22c.6 0 1 .4 1 1v4.5c0 .8.7 1.5 1.5 1.5h3c.8 0 1.5-.7 1.5-1.5V30c0-.6.4-1 1-1z M0.6839999999999997 0.6839999999999997"/></svg>