<svg xmlns="http://www.w3.org/2000/svg" width="52" height="52" viewBox="0 0 52 52"><path d="M6.6 5.1H4.2c-.6 0-1.2.6-1.2 1.2v36.4c0 .7.6 1.3 1.2 1.3h2.4c.6 0 1.2-.6 1.2-1.2V6.3c.1-.6-.5-1.2-1.2-1.2zM30 27.9c2.8-2.8 6.6-4.1 10.2-3.8V10.4c0-.6-.6-1-1.2-.6-13 6.8-11.5-7.1-27.1-1.7-.5.2-.8.6-.8 1.1V28c0 .6.6 1 1.1.7 8.7-2.9 12 .3 15.6 2.3.5-1.1 1.3-2.1 2.2-3.1zM46.1 30.3c-3.8-3.8-10-3.8-13.8 0-3.8 3.8-3.8 10 0 13.8s10 3.8 13.8 0 3.9-10 0-13.8zm-2.8 8.6c.3.3.3.9-.1 1.2l-1.1 1.1c-.3.3-.7.3-1.1-.1l-1.7-1.7-1.8 1.8c-.3.3-.7.3-1.1-.1L35.3 40c-.3-.3-.4-.7-.1-1.1l1.8-1.8-1.7-1.8c-.3-.3-.4-.7-.1-1.1l1.1-1.1c.3-.3.9-.4 1.2-.1l1.7 1.7 1.7-1.7c.3-.3.9-.4 1.2-.1l1.1 1.1c.3.3.3.9-.1 1.2l-1.7 1.7 1.9 2z M0.5059999999999996 0.5059999999999996" fill="#fff"/></svg>