<svg xmlns="http://www.w3.org/2000/svg" width="52" height="52" viewBox="0 0 52 52"><path fill="#fff" d="M6.9 33.7H3.7c-.9 0-1.6.7-1.6 1.6v3.2c0 .9.7 1.6 1.6 1.6H7c.9-.1 1.5-.8 1.4-1.6v-3.2c.1-.9-.6-1.6-1.5-1.6zm9.6-21.9h31.6c.9 0 1.6-.7 1.6-1.6V7c0-.9-.7-1.6-1.6-1.6H16.5c-.9 0-1.6.7-1.6 1.6v3.2c0 .9.7 1.6 1.6 1.6zm0 14.2h31.6c.9 0 1.6-.7 1.6-1.6v-3.2c0-.9-.7-1.6-1.6-1.6H16.5c-.9 0-1.6.7-1.6 1.6v3.2c0 .8.7 1.6 1.6 1.6zM6.9 5.4H3.7c-.9 0-1.6.7-1.6 1.6v3.2c0 .9.7 1.6 1.6 1.6H7c.9-.1 1.5-.8 1.4-1.6V6.9c.1-.8-.6-1.5-1.5-1.5zm0 14.1H3.7c-.9 0-1.6.7-1.6 1.6v3.2c0 .9.7 1.6 1.6 1.6H7c.9-.1 1.5-.8 1.4-1.6v-3.2c.1-.8-.6-1.6-1.5-1.6zm14 20.2c0-1.8.6-3.6 1.7-5v-1.1h-6.1c-.9 0-1.6.7-1.6 1.6v3.2c0 .9.7 1.6 1.6 1.6h4.4v-.3zm14.3-8.3c.8-.8 1.9-1.3 3.2-1.3 1.7 0 3.1.9 3.9 2.2.6-.2 1.4-.5 2.2-.5 2.9 0 5.4 2.5 5.4 5.3 0 2.9-2.5 5.3-5.4 5.3-.3 0-.7 0-1-.1-.6 1.2-2 2-3.4 2-.6 0-1.2-.2-1.7-.4-.7 1.6-2.3 2.7-4.1 2.7-2 0-3.6-1.2-4.2-2.9-.2 0-.6.1-.9.1-2.3 0-4.2-1.8-4.2-4.1 0-1.5.8-2.9 2.1-3.6-.2-.6-.4-1.2-.4-1.9 0-2.6 2.2-4.8 4.8-4.8 1.4.1 2.9.8 3.7 2z M0.26699999999999935 0.26699999999999935"/></svg>