<svg xmlns="http://www.w3.org/2000/svg" width="52" height="52" viewBox="0 0 52 52"><path fill="#fff" d="M48.3 14.9H16.4c-.9 0-1.6-.7-1.6-1.6v-3.2c0-.9.7-1.6 1.6-1.6h31.9c.9 0 1.6.7 1.6 1.6v3.2c0 .9-.7 1.6-1.6 1.6zm0 14.3H16.4c-.9 0-1.6-.7-1.6-1.6v-3.2c0-.9.7-1.6 1.6-1.6h31.9c.9 0 1.6.7 1.6 1.6v3.2c0 .9-.7 1.6-1.6 1.6zm-41.4 0H3.7c-.9 0-1.6-.7-1.6-1.6v-3.2c0-.9.7-1.6 1.6-1.6h3.2c.9 0 1.6.7 1.6 1.6v3.2c0 .9-.7 1.6-1.6 1.6zm0-14.3H3.7c-.9 0-1.6-.7-1.6-1.6v-3.2c0-.9.7-1.6 1.6-1.6h3.2c.9 0 1.6.7 1.6 1.6v3.2c0 .9-.7 1.6-1.6 1.6zm0 28.6H3.7c-.9 0-1.6-.7-1.6-1.6v-3.2c0-.9.7-1.6 1.6-1.6h3.2c.9 0 1.6.7 1.6 1.6v3.2c0 .9-.7 1.6-1.6 1.6zm41.4 0H16.4c-.9 0-1.6-.7-1.6-1.6v-3.2c0-.9.7-1.6 1.6-1.6h31.9c.9 0 1.6.7 1.6 1.6v3.2c0 .9-.7 1.6-1.6 1.6z M0.26599999999999935 0.26599999999999935"/></svg>