<svg xmlns="http://www.w3.org/2000/svg" width="52" height="52" viewBox="0 0 52 52"><path fill="#fff" d="M13.1 28.5C7.2 28.5 2.5 33.2 2.5 39s4.7 10.6 10.6 10.6c5.8 0 10.6-4.7 10.6-10.6-.1-5.8-4.8-10.5-10.6-10.5zm0 16.4c-3.2 0-5.9-2.6-5.9-5.9s2.6-5.9 5.9-5.9S19 35.7 19 39s-2.7 5.9-5.9 5.9zm25.8-16.4c-5.8 0-10.6 4.7-10.6 10.6 0 5.8 4.7 10.6 10.6 10.6 5.8 0 10.6-4.7 10.6-10.6 0-5.9-4.7-10.6-10.6-10.6zm-25.8-26C7.2 2.5 2.5 7.2 2.5 13.1c0 5.8 4.7 10.6 10.6 10.6 5.8 0 10.6-4.7 10.6-10.6-.1-5.9-4.8-10.6-10.6-10.6zm0 16.4c-3.2 0-5.9-2.6-5.9-5.9s2.6-5.9 5.9-5.9S19 9.7 19 13s-2.7 5.9-5.9 5.9zM38.9 2.5c-5.8 0-10.6 4.7-10.6 10.6 0 5.8 4.7 10.6 10.6 10.6 5.8 0 10.6-4.7 10.6-10.6 0-5.9-4.7-10.6-10.6-10.6z M0.23099999999999932 0.23099999999999932"/></svg>