<svg xmlns="http://www.w3.org/2000/svg" viewBox="0 0 52 52" height="52" width="52"><path fill="#fff" d="M28.9 43v5c0 1.1-.9 2-2 2h-2c-1.1 0-2-.9-2-2v-5c0-.6.5-.9 1-.8 0 0 1 .3 2 .3s2.1-.3 2.1-.3c.6-.1 1 .3.9.8zM11 10.8V4c0-1.1-.9-2-2-2H7c-1.1 0-2 .9-2 2v6.8c-1.8 1-3 3-3 5.2 0 3.3 2.7 6 6 6s6-2.7 6-6c0-2.2-1.2-4.2-3-5.2zm-1 15.4s-1.1.3-2.1.3-2-.3-2-.3c-.5-.1-1 .2-1 .8v21c0 1.1.9 2 2 2h2c1.1 0 2-.9 2-2V27c.1-.6-.3-.9-.9-.8zm36 4s-1.1.3-2.1.3-2-.3-2-.3c-.5-.1-1 .2-1 .8v17c0 1.1.9 2 2 2h2c1.1 0 2-.9 2-2V31c.1-.5-.3-.9-.9-.8zm1-15.4V4c0-1.1-.9-2-2-2h-2c-1.1 0-2 .9-2 2v10.8c-1.8 1-3 3-3 5.2 0 3.3 2.7 6 6 6s6-2.7 6-6c0-2.2-1.2-4.2-3-5.2zm-18 12V4c0-1.1-.9-2-2-2h-2c-1.1 0-2 .9-2 2v22.8c-1.8 1-3 3-3 5.2 0 3.3 2.7 6 6 6s6-2.7 6-6c0-2.2-1.2-4.2-3-5.2z M0.2159999999999993 0.2159999999999993"/></svg>