<svg xmlns="http://www.w3.org/2000/svg" width="52" height="52" viewBox="0 0 52 52"><path d="M5.2 3h35.6C42.5 3 44 4.5 44 6.3v3.4c0 1.8-1.5 3.3-3.2 3.3H5.2C3.5 13 2 11.5 2 9.7V6.3C2 4.5 3.5 3 5.2 3zm-4 9h19.6c3.8 3 5.2 4.5 5.2 6.3v3.4c0 1.8-1.4 3.3-3.2 3.3H3.2C1.4 25 0 23.5 0 21.7v-3.4C0 16.5 1.4 15 3.2 15zM37 25c6 0 11 4.9 11 11s-5 11-11 11-11-5-11-11 4.9-11 11-11zm7 7.9c.3-.2.3-.8 0-1l-1.1-1.1c-.3-.3-.8-.3-1.1 0l-6 6.8-2.7-2.8c-.3-.3-.8-.3-1.1 0l-1.2 1.1c-.3.2-.3.7 0 1l3.9 3.8c.3.3.7.5 1.1.5.5 0 .8-.2 1.1-.5l7.1-7.8zM3.2 30h18.6c-.7 1.9-1 3.6-1 5-.1 1.8.1 3.4.5 5H3.2C1.4 40 0 38.5 0 36.7v-3.4C0 31.5 1.4 30 3.2 30z M0.14799999999999924 0.14799999999999924" fill="#FFF"/></svg>