<svg xmlns="http://www.w3.org/2000/svg" width="52" height="52" viewBox="0 0 52 52"><path fill="#fff" d="M33.5 28l1-4h3l-1 4h-3zm-.7 3h3l-.8 3h3l.8-3H42v-3h-2.5l1-4h3v-3h-2.2l.7-3h-3l-.7 3h-3l.7-3h-3l-.7 3H29v3h2.5l-1 4H27v3h2.8l-.8 3h3l.8-3zM4 6h44c1.1 0 2 .9 2 2v36c0 1.1-.9 2-2 2H4c-1.1 0-2-.9-2-2V8c0-1.1.9-2 2-2zm19.8 20.8c.6-.4 1.1-.8 1.5-1.2.4-.3.7-.8 1-1.3.3-.5.4-1.2.4-1.9 0-.8-.2-1.7-.7-2.4-.4-.7-1.1-1.2-1.9-1.6-.8-.4-1.7-.6-2.8-.6-1.2 0-2.3.2-3.2.7-.9.4-1.7 1.1-2.4 2l-.2.2 2.1 1.8.2-.2c.5-.6 1-1 1.5-1.3.5-.2 1.1-.4 1.8-.4s1.2.2 1.6.6c.4.3.6.8.6 1.4 0 .4-.2.8-.5 1.2-.3.3-.8.7-1.4 1.2-.8.5-1.3 1-1.7 1.5-.4.5-.7 1.1-.7 1.8v.7h3.2v-.3c0-.3.1-.6.3-.8.3-.3.7-.7 1.3-1.1zM10 18v11h3V18h-3zm1.5 16.5c1.1 0 2-.9 2-2s-.9-2-2-2-2 .9-2 2 .9 2 2 2zm9 0c1.1 0 2-.9 2-2s-.9-2-2-2-2 .9-2 2 .9 2 2 2z M0.14599999999999924 0.14599999999999924"/></svg>