<svg xmlns="http://www.w3.org/2000/svg" width="52" height="52" viewBox="0 0 52 52"><title/><path fill="#fff" d="M45.4 33.3H48l-1.2-4.1 1.2-4.1h-4.4c-.8-2.4-1.9-4.8-3.5-7.2-1.5-2.2-3.3-4.3-5.6-6.3-2.3-1.9-5.1-3.6-8.4-4.9l-.2-.1-.2.1s-1.3.3-3.1 1.2c-1.4.7-3.1 1.7-4.9 3.1-2.7 2.1-5.6 5.1-7.8 9.4-.7 1.4-1.4 3-1.9 4.7H4l1.2 4.1L4 33.3h2.4c-.1 1.3-.2 2.6-.2 3.9 0 .7 0 1.5.1 2.3v.4l.3.2s2.1 1.2 5.5 2.3c3.5 1.2 8.3 2.3 14.1 2.3 4.6 0 9.7-.7 15.1-2.8 1.3-.5 2.7-1.1 4-1.8l.3-.2h.1v-2.7c0-1-.1-2.3-.3-3.9zM5.9 31.9l.8-2.7-.8-2.7h40.2l-.8 2.7.8 2.7H5.9zm7.2-6.8l2.9-4.9.1-.1 2.5-4.1 4.2 5.3 2.5-2.5L28 22l4.1-6 6.7 9.1H13.1zm-2.6-2.7c.5-1.1 1.1-2.2 1.7-3.2.1-.2.2-.3.3-.5.1-.1.2-.3.3-.4C18 10.3 25.6 8 25.7 8l.2-.1.2.1c5.4 2.2 9.2 5.5 11.9 9.2.9 1.1 1.6 2.3 2.3 3.5.8 1.4 1.4 2.9 1.9 4.3h-1.6c-2.2-5.8-6.5-12.1-14.7-15.6-1.7.5-10.8 4-14.9 15.6H9.4c.3-.8.7-1.7 1.1-2.6zm33.8 16.3v.4l-.4.2c-6.3 3.1-12.3 4.2-17.7 4.2-9.8 0-17.1-3.5-18.2-4.1-.2-.1-.3-.2-.4-.2h-.1v-.4c0-1.9 0-3.6.2-5.3h1.5c-.2 1.3-.3 2.9-.2 4.7 1.4.7 6.6 3 13.6 3.6 1.6-.9 2.7-2.7.1-4.9h-.2l-.1-.1-.1-.1-.1-.1v-.1l-.1-.1v-.1l-.1-.1V36c-.4-.8 0-1.6 2.4-1.8.7-.1 3.1.1 2.2-.8h1.2c.7.8.7 1.8-2.9 2.2-.5 0-.7.3-.6.5h.1c3.7.9 4.6 3.6 4.3 5.5 4.3-.3 9-1.4 13.7-3.7 0-.8 0-2.5-.3-4.8h1.5c0 .4.1.8.1 1.2.7 2.7.6 4.3.6 4.4z M0.11899999999999922 0.11899999999999922"/></svg>