<svg xmlns="http://www.w3.org/2000/svg" width="52" height="52" viewBox="0 0 52 52"><path fill="#fff" d="M47 21L42.5 8.8C41.8 6.5 39.6 5 37.2 5H14.8c-2.4 0-4.6 1.5-5.4 3.8L5 21c-2.1.6-3 2.6-3 4.8v11.6c0 2.1 2.2 3.9 4 4.6v4c0 1.3.7 2 2 2h5.1c1.3 0 1.9-.7 1.9-2v-4h22v4c0 1.3.7 2 2 2h5c1.3 0 2-.7 2-2v-4c1.8-.7 4-2.4 4-4.6V25.8c0-2.2-.9-4.2-3-4.8zM11 34c-2.2 0-4-1.8-4-4s1.8-4 4-4 4 1.8 4 4-1.8 4-4 4zm16.6-13H11.8c-.6 0-1-.5-.8-1l3-9c.1-.3.3-1 1-1h22c.8 0 .9.8 1 1l3 9c.2.6-.1 1-.9 1H27.6zM41 34c-2.2 0-4-1.8-4-4s1.8-4 4-4 4 1.8 4 4-1.8 4-4 4z M0.29299999999999937 0.29299999999999937"/></svg>