<svg xmlns="http://www.w3.org/2000/svg" width="52" height="52" viewBox="0 0 52 52"><path d="M48 11H4c-1.1 0-2 .9-2 2v26c0 1.1.9 2 2 2h44c1.1 0 2-.9 2-2V13c0-1.1-.9-2-2-2zm-2 26H6V15h40v22zM11.2 21.8h1c.8 0 1.5-.7 1.5-1.5v-1c0-.8-.7-1.5-1.5-1.5h-1c-.8 0-1.5.7-1.5 1.5v1c0 .8.7 1.5 1.5 1.5zm5.7 0h1c.8 0 1.5-.7 1.5-1.5v-1c0-.8-.7-1.5-1.5-1.5h-1c-.8 0-1.5.7-1.5 1.5v1c0 .8.7 1.5 1.5 1.5zm11.5 0h1c.8 0 1.5-.7 1.5-1.5v-1c0-.8-.7-1.5-1.5-1.5h-1c-.8 0-1.5.7-1.5 1.5v1c0 .8.7 1.5 1.5 1.5zm-5.8 0h1c.8 0 1.5-.7 1.5-1.5v-1c0-.8-.7-1.5-1.5-1.5h-1c-.8 0-1.5.7-1.5 1.5v1c0 .8.7 1.5 1.5 1.5zm17.3 0h1c.8 0 1.5-.7 1.5-1.5v-1c0-.8-.7-1.5-1.5-1.5h-1c-.8 0-1.5.7-1.5 1.5v1c0 .8.7 1.5 1.5 1.5zm-5.8 0h1c.8 0 1.5-.7 1.5-1.5v-1c0-.8-.7-1.5-1.5-1.5h-1c-.8 0-1.5.7-1.5 1.5v1c0 .8.7 1.5 1.5 1.5zm-22.9 6h1c.8 0 1.5-.7 1.5-1.5v-1c0-.8-.7-1.5-1.5-1.5h-1c-.8 0-1.5.7-1.5 1.5v1c0 .8.7 1.5 1.5 1.5zm5.7 0h1c.8 0 1.5-.7 1.5-1.5v-1c0-.8-.7-1.5-1.5-1.5h-1c-.8 0-1.5.7-1.5 1.5v1c0 .8.7 1.5 1.5 1.5zm11.5 0h1c.8 0 1.5-.7 1.5-1.5v-1c0-.8-.7-1.5-1.5-1.5h-1c-.8 0-1.5.7-1.5 1.5v1c0 .8.7 1.5 1.5 1.5zm-5.8 0h1c.8 0 1.5-.7 1.5-1.5v-1c0-.8-.7-1.5-1.5-1.5h-1c-.8 0-1.5.7-1.5 1.5v1c0 .8.7 1.5 1.5 1.5zm17.3 0h1c.8 0 1.5-.7 1.5-1.5v-1c0-.8-.7-1.5-1.5-1.5h-1c-.8 0-1.5.7-1.5 1.5v1c0 .8.7 1.5 1.5 1.5zm-5.8 0h1c.8 0 1.5-.7 1.5-1.5v-1c0-.8-.7-1.5-1.5-1.5h-1c-.8 0-1.5.7-1.5 1.5v1c0 .8.7 1.5 1.5 1.5zm-22.9 6h1c.8 0 1.5-.7 1.5-1.5v-1c0-.8-.7-1.5-1.5-1.5h-1c-.8 0-1.5.7-1.5 1.5v1c0 .8.7 1.5 1.5 1.5zm5.7 0h18.2c.8 0 1.5-.7 1.5-1.5v-1c0-.8-.7-1.5-1.5-1.5H16.9c-.8 0-1.5.7-1.5 1.5v1c0 .8.7 1.5 1.5 1.5zm23 0h1c.8 0 1.5-.7 1.5-1.5v-1c0-.8-.7-1.5-1.5-1.5h-1c-.8 0-1.5.7-1.5 1.5v1c0 .8.7 1.5 1.5 1.5z M0.11499999999999921 0.11499999999999921" fill="#fff"/></svg>