<svg xmlns="http://www.w3.org/2000/svg" width="100" height="100" viewBox="0 0 100 100"><path fill="#fff" d="M48.2 63.9h29.9c1.1 0 2 .9 2 2v4c0 1.1-.9 2-2 2H48.2c-1.1 0-2-.9-2-2v-4c0-1.1.9-2 2-2zm0-17.9h29.9c1.1 0 2 .9 2 2v4c0 1.1-.9 2-2 2H48.2c-1.1 0-2-.9-2-2v-4c0-1.1.9-2 2-2zm0-17.8h29.9c1.1 0 2 .9 2 2v4c0 1.1-.9 2-2 2H48.2c-1.1 0-2-.9-2-2v-4c0-1.1.9-2 2-2zm-19.2 0c-2.2 0-4 1.8-4 4s1.8 4 4 4 4-1.8 4-4-1.8-4-4-4zm0 35.7c-2.2 0-4 1.8-4 4s1.8 4 4 4 4-1.8 4-4-1.8-4-4-4zM29 41c-5 0-9 4-9 9s4 9 9 9 9-4 9-9-4-9-9-9zm0 12c-1.7 0-3-1.4-3-3 0-1.7 1.4-3 3-3s3 1.4 3 3c0 1.7-1.3 3-3 3z M0.993 0.993"/></svg>