<svg xmlns="http://www.w3.org/2000/svg" width="100" height="100" viewBox="0 0 100 100"><path fill="#fff" d="M22 71.8h56c1.1 0 2 .9 2 2v4c0 1.1-.9 2-2 2H22c-1.1 0-2-.9-2-2v-4c0-1.1.9-2 2-2zm0-18h56c1.1 0 2 .9 2 2v4c0 1.1-.9 2-2 2H22c-1.1 0-2-.9-2-2v-4c0-1.1.9-2 2-2zm35.6-18H78c1.1 0 2 .9 2 2v4c0 1.1-.9 2-2 2H57.6c-1.1 0-2-.9-2-2v-4c0-1.1.9-2 2-2zm-10 8.6L38.1 21c-.2-.4-.6-.7-1.1-.7h-7.2c-.4 0-.9.3-1 .7L20 44.4c-.1.4.1 1 .7 1h4.6c.4 0 .9-.4 1-.8l1.8-5h11.1l2 5c.1.4.6.8 1 .8h4.6c.6 0 .9-.5.8-1zM30.2 33.6l2.9-7.4h.6l3.2 7.4h-6.7z M0.7509999999999998 0.7509999999999998"/></svg>