<svg xmlns="http://www.w3.org/2000/svg" width="100" height="100" viewBox="0 0 100 100"><g fill="#fff" fill-rule="evenodd"><circle cx="39" cy="32" r="12"/><circle cx="70" cy="50" r="12"/><path fill-rule="nonzero" d="M39 74c3.3 0 6-2.7 6-6s-2.7-6-6-6-6 2.7-6 6 2.7 6 6 6zm0 6c-6.6 0-12-5.4-12-12s5.4-12 12-12 12 5.4 12 12-5.4 12-12 12zm6.7-38.7c3.6 4.4 8.3 7 14.1 7.7 1.1.1 2.1-.6 2.2-1.7.2-1.1-.6-2.1-1.7-2.3-4.8-.5-8.5-2.6-11.5-6.2-.7-.8-1.9-1-2.8-.3-.8.7-1 2-.3 2.8zM27.8-52c2.3-5.2 2.4-10.6.4-16-.4-1.1-1.5-1.6-2.6-1.2-1 .4-1.5 1.5-1.1 2.6 1.6 4.4 1.5 8.7-.4 13-.4 1 0 2.2 1 2.6 1 .5 2.2 0 2.7-1zM48 25.8c3.7-2.1 7.6-2.4 11.8-.7 4 1.7 6.6 4.9 7.6 8.2.5 1.6.6 2.7.6 6.2 0 1.1.9 2 2 2s2-.9 2-2c0-3.9-.2-5.3-.8-7.4-1.3-4.4-4.7-8.5-9.9-10.7-5.3-2.1-10.4-1.8-15.3.8-.9.6-1.3 1.8-.8 2.8.6.9 1.8 1.3 2.8.8zm0 48.5c3.7 2.1 7.6 2.3 11.8.7 4-1.7 6.6-4.9 7.6-8.2.5-1.7.6-2.8.6-6.3 0-1.1.9-2 2-2s2 .9 2 2c0 3.9-.2 5.3-.8 7.5-1.3 4.3-4.7 8.4-9.9 10.7-5.3 2-10.4 1.7-15.3-.9-.9-.5-1.3-1.8-.8-2.7.6-1 1.8-1.4 2.8-.8z M0.6199999999999997 0.6199999999999997"/></g></svg>