<svg xmlns="http://www.w3.org/2000/svg" width="100" height="100" viewBox="0 0 100 100"><title/><path fill="#fff" d="M37.1 62.3H77c1.1 0 2 .9 2 2v4c0 1.1-.9 2-2 2H37.1c-1.1 0-2-.9-2-2v-4c0-1.1.9-2 2-2zm-12.1 8h-4c-1.1 0-2-.9-2-2v-4c0-1.1.9-2 2-2h4c1.1 0 2 .9 2 2v4c.1 1-.7 1.9-1.8 2H25zm0-17.9h-4c-1.1 0-2-.9-2-2v-4c0-1.1.9-2 2-2h4c1.1 0 2 .9 2 2v4c.1 1-.7 1.9-1.8 2H25zm0-17.9h-4c-1.1 0-2-.9-2-2v-4c0-1.1.9-2 2-2h4c1.1 0 2 .9 2 2v4c.1 1-.7 1.9-1.8 2H25zm12.1 9.9h35.1c1.1 0 2 .9 2 2v4c0 1.1-.9 2-2 2H37.1c-1.1 0-2-.9-2-2v-4c0-1.1.9-2 2-2zm0-17.8H77c1.1 0 2 .9 2 2v4c0 1.1-.9 2-2 2H37.1c-1.1 0-2-.9-2-2v-4c0-1.1.9-2 2-2z M0.6149999999999997 0.6149999999999997"/></svg>