<svg xmlns="http://www.w3.org/2000/svg" width="100" height="100" viewBox="0 0 100 100"><title/><path fill="#fff" d="M64.7 67.5c-.2.5-.7.6-1.2.6h-5.8c-.5 0-.9-.4-.9-.9 0-.1.1-.4.1-.5l.1-.1.2-.2L70 50.9c.4-.5.5-1.2.2-1.7 0-.1-.1-.2-.1-.2L56.9 33.2c-.1-.1-.1-.4-.1-.5 0-.5.5-.9.9-.9h5.8c.5 0 1 .1 1.2.6L78.4 49c.2.2.2.6.2.9 0 .4-.1.7-.2 1L64.7 67.5zm-14.3 0c-.2.5-.7.6-1.2.6h-5.8c-.5 0-.9-.4-.9-.9 0-.1.1-.4.1-.5l.1-.1.2-.2 12.7-15.5c.4-.5.5-1.2.2-1.7 0-.1-.1-.2-.1-.2L42.6 33.2c-.1-.1-.1-.4-.1-.5 0-.5.5-.9.9-.9h5.8c.5 0 1 .1 1.2.6L64.1 49c.2.2.2.6.2.9 0 .4-.1.7-.2 1L50.4 67.5zm-14.4 0c-.2.5-.7.6-1.2.6H23.9c-.5 0-.9-.4-.9-.9 0-.1.1-.4.1-.5l.1-.1.2-.2 12.7-15.5c.4-.5.5-1.2.2-1.7 0-.1-.1-.2-.1-.2l-13-15.8c-.2-.1-.2-.3-.2-.5 0-.5.5-.9.9-.9h10.8c.5 0 1 .1 1.2.6L49.6 49c.2.2.2.6.2.9 0 .4-.1.7-.2 1L36 67.5z M0.6549999999999997 0.6549999999999997"/></svg>