<svg xmlns="http://www.w3.org/2000/svg" width="100" height="100" viewBox="0 0 100 100"><path fill="#fff" d="M50 22c16.6 0 30 12.5 30.1 28 0 15.5-13.4 28-30 28-5.8 0-11.2-1.5-15.8-4.2-.5-.3-1.1-.4-1.7-.2l-8.8 3.1c-1.6.5-3.1-.9-2.6-2.5l2.8-8.9c.2-.5.1-1.1-.2-1.6C21.4 59.6 20 55 20 50c0-15.5 13.4-28 30-28zm8.8 42c1.9 0 3.4-2.1 3.2-4.1-.1-3-3.2-5-6.6-6.4-2.3-.9-2.6-1.8-2.6-2.8 0-1.1.6-2 1.4-2.7 1.4-1.2 2.1-3 2.1-5 0-3.8-2.3-7-6.3-7s-6.4 3.2-6.4 7c0 2 .8 3.8 2.2 5 .8.7 1.4 1.6 1.4 2.7 0 1-.3 1.9-2.7 2.9-3.3 1.5-6.4 3.3-6.5 6.3 0 2 1.5 4.1 3.4 4.1h17.4z M0.5489999999999996 0.5489999999999996"/></svg>