<svg xmlns="http://www.w3.org/2000/svg" width="100" height="100" viewBox="0 0 100 100"><path d="M67.2 28.9C60.8 31.5 57.4 37.7 57 48h10.3c.8-3.5 4-6 7.7-6 4.4 0 8 3.6 8 8s-3.6 8-8 8c-3.7 0-6.9-2.5-7.7-6H57c.4 10.3 3.8 16.5 10.2 19.1.9-3.5 4-6.1 7.8-6.1 4.4 0 8 3.6 8 8s-3.6 8-8 8c-3.6 0-6.6-2.4-7.6-5.6C58.3 72.6 53.5 64.7 53 52h-6c-1.1 0-2-.9-2-2s.9-2 2-2h6c.5-12.7 5.3-20.6 14.4-23.4 1-3.2 4-5.6 7.6-5.6 4.4 0 8 3.6 8 8s-3.6 8-8 8c-3.8 0-6.9-2.6-7.8-6.1zM75 31c2.2 0 4-1.8 4-4s-1.8-4-4-4-4 1.8-4 4 1.8 4 4 4zm0 46c2.2 0 4-1.8 4-4s-1.8-4-4-4-4 1.8-4 4 1.8 4 4 4zm0-23c2.2 0 4-1.8 4-4s-1.8-4-4-4-4 1.8-4 4 1.8 4 4 4zM45.1 68H22.5c-2.6 0-4.5-2.4-4.5-5.1.1-4 4.3-6.1 8.6-8 3-1.3 3.5-2.4 3.5-3.7 0-1.4-.9-2.5-1.8-3.4-1.8-1.7-2.7-3.9-2.7-6.6 0-4.9 3-9.2 8.3-9.2 5.4 0 8.3 4.3 8.3 9.2 0 2.7-.8 4.9-2.6 6.6-1.1.9-1.8 2-1.8 3.4 0 1.2.4 2.4 3.4 3.7 4.3 1.9 8.5 4 8.6 8-.3 2.7-2.2 5.1-4.7 5.1z M0.5059999999999996 0.5059999999999996"/></svg>