<svg xmlns="http://www.w3.org/2000/svg" width="100" height="100" viewBox="0 0 100 100"><path fill="#fff" d="M78 36H38c-1.1 0-2-.9-2-2v-4c0-1.1.9-2 2-2h40c1.1 0 2 .9 2 2v4c0 1.1-.9 2-2 2zm0 18H38c-1.1 0-2-.9-2-2v-4c0-1.1.9-2 2-2h40c1.1 0 2 .9 2 2v4c0 1.1-.9 2-2 2zm-52 0h-4c-1.1 0-2-.9-2-2v-4c0-1.1.9-2 2-2h4c1.1 0 2 .9 2 2v4c0 1.1-.9 2-2 2zm0-18h-4c-1.1 0-2-.9-2-2v-4c0-1.1.9-2 2-2h4c1.1 0 2 .9 2 2v4c0 1.1-.9 2-2 2zm0 36h-4c-1.1 0-2-.9-2-2v-4c0-1.1.9-2 2-2h4c1.1 0 2 .9 2 2v4c0 1.1-.9 2-2 2zm52 0H38c-1.1 0-2-.9-2-2v-4c0-1.1.9-2 2-2h40c1.1 0 2 .9 2 2v4c0 1.1-.9 2-2 2z M0.4559999999999995 0.4559999999999995"/></svg>