<svg xmlns="http://www.w3.org/2000/svg" width="100" height="100" viewBox="0 0 100 100"><path fill="#fff" d="M25.9 59.7h-4c-1.1 0-2 .9-2 2v4c0 1.1.9 2 2 2h4.2c1.1-.1 1.9-1 1.8-2v-4c0-1.1-.9-2-2-2zM38 32h39.9c1.1 0 2-.9 2-2v-4c0-1.1-.9-2-2-2H38c-1.1 0-2 .9-2 2v4c0 1.1.9 2 2 2zm0 17.9h39.9c1.1 0 2-.9 2-2v-4c0-1.1-.9-2-2-2H38c-1.1 0-2 .9-2 2v4c0 1.1.9 2 2 2zm-12.1-26h-4c-1.1 0-2 .9-2 2v4c0 1.1.9 2 2 2h4.2c1.1-.1 1.9-1 1.8-2v-4c0-1.1-.9-2-2-2zm0 17.9h-4c-1.1 0-2 .9-2 2v4c0 1.1.9 2 2 2h4.2c1.1-.1 1.9-1 1.8-2v-4c0-1.1-.9-2-2-2zm17.7 25.5c0-2.3.8-4.5 2.1-6.3v-1.3H38c-1.1 0-2 .9-2 2v4c0 1.1.9 2 2 2h5.6v-.4zm18.1-10.5c1-1 2.4-1.7 4-1.7 2.1 0 3.9 1.1 4.9 2.8.8-.3 1.8-.6 2.8-.6 3.7 0 6.8 3.1 6.8 6.7 0 3.7-3.1 6.7-6.8 6.7-.4 0-.9 0-1.3-.1-.8 1.5-2.5 2.5-4.3 2.5-.8 0-1.5-.2-2.2-.5-.9 2-2.9 3.4-5.2 3.4-2.5 0-4.5-1.5-5.3-3.6-.3 0-.7.1-1.1.1-2.9 0-5.3-2.3-5.3-5.2 0-1.9 1-3.6 2.6-4.5-.3-.7-.5-1.5-.5-2.4 0-3.3 2.8-6 6.1-6 1.9 0 3.7.9 4.8 2.4z M0.4569999999999995 0.4569999999999995"/></svg>