<svg xmlns="http://www.w3.org/2000/svg" width="100" height="100" viewBox="0 0 100 100"><title/><path fill="#fff" d="M77.4 78.1H40.5c-1.2 0-2.3-1-2.3-2.2v-4.7c0-1.2 1-2.3 2.2-2.3h37c1.2 0 2.3 1 2.3 2.2v4.7c.1 1.2-.9 2.3-2.3 2.3.1 0 .1 0 0 0zm-50.8 0H22c-1.2 0-2.3-1-2.3-2.2v-4.7c0-1.2 1-2.3 2.2-2.3h4.7c1.2 0 2.3 1 2.3 2.2v4.7c.1 1.2-.9 2.2-2.1 2.3h-.2zm27.2-20.5c-1.2 0-2.3-1-2.3-2.2v-4.7c0-1.2 1-2.3 2.2-2.3h23.7c1.2 0 2.3 1 2.3 2.2v4.7c0 1.2-1 2.3-2.2 2.3H53.8zm8.8-20.5c-1.2 0-2.3-1-2.3-2.2v-4.7c0-1.2 1-2.3 2.2-2.3h14.9c1.2 0 2.3 1 2.3 2.2v4.7c0 1.2-1 2.3-2.2 2.3H62.6zM20.8 58.2C19.6 47.5 28 36.4 38 34.5l2.7-.6c.5-.1.9-.6.8-1.2 0-.3-.2-.5-.4-.6l-6.7-4.5c-.7-.5-.8-1.4-.3-2v-.1l1.7-2.5c.4-.7 1.4-.9 2-.4h.1L54 33.5c.7.4.9 1.4.4 2v.1l-11 16.2c-.4.7-1.4.9-2 .4h-.1l-2.5-1.7c-.7-.4-.9-1.4-.4-2v-.1l4.4-6.7c.3-.4.3-1.1-.2-1.4-.2-.2-.5-.3-.8-.2l-1.6.3c-7.8 1.5-14.4 10.3-13.7 17.9 0 .7-1.1 1.7-1.9 1.9h-1.9c-.9.1-1.9-1.1-1.9-2z M0.5809999999999996 0.5809999999999996"/></svg>