<svg xmlns="http://www.w3.org/2000/svg" width="100" height="100" viewBox="0 0 100 100"><title/><path fill="#fff" d="M77.8 77.4h-37c-1.2 0-2.3-1-2.3-2.2v-4.7c0-1.2 1-2.3 2.2-2.3h37c1.2 0 2.3 1 2.3 2.2v4.7c.1 1.2-.9 2.3-2.2 2.3zm-50.9 0h-4.6c-1.2 0-2.3-1-2.3-2.2v-4.7c0-1.2 1-2.3 2.2-2.3h4.7c1.2 0 2.3 1 2.3 2.2v4.7c.1 1.2-.8 2.2-2 2.3h-.3zm-2.5-28.9c6.8-11.7 22.9-17 33.6-11.8l2.9 1.3c1 .5 2-.6 1.7-1.6L59.8 27c-.3-1 .3-2 1.2-2.4l3.4-1.3c.8-.4 1.7 0 2.1.8 0 .1.1.2.1.3l6.8 22.7c.3 1-.2 2.1-1.2 2.4l-22 8.6c-.8.4-1.7 0-2.1-.8 0-.1-.1-.2-.1-.3l-1.1-3.5c-.3-1 .2-2.1 1.2-2.4l9-3.6c.7-.2 1-.9.8-1.6-.1-.3-.3-.6-.6-.7l-1.7-.8c-8.3-4.1-21 .1-26 8.4-.5.8-2.3 1-3.2.6l-1.7-1.6c-.9-.4-.8-2.4-.3-3.3z M0.5799999999999996 0.5799999999999996"/></svg>