<svg xmlns="http://www.w3.org/2000/svg" width="100" height="100" viewBox="0 0 100 100"><title/><path fill="#fff" d="M66.3 59.5c-2.2 0-3.9-1.7-4-3.9 0-2.2 1.8-3.9 4-3.9s3.9 1.7 4 3.9c0 2.1-1.8 3.9-4 3.9zm-18.9 0c-2.2 0-3.9-1.7-4-3.9 0-2.2 1.8-3.9 4-3.9s3.9 1.7 4 3.9c-.1 2.1-1.8 3.8-4 3.9zm9.4 0c-2.2 0-3.9-1.7-4-3.9 0-2.2 1.8-3.9 4-3.9s3.9 1.7 4 3.9c0 2.1-1.8 3.9-4 3.9zm14.8-39.3H28.1c-4.4-.1-8.1 3.4-8.3 7.8v44.4c.2 4.4 3.8 7.9 8.2 7.8h24.4c-5.1-4.5-13.5-13.8-13.5-23.5 0-9.6 7.7-17.3 17.3-17.3 9.6 0 17.3 7.7 17.3 17.3 0 9.8-8.5 19-13.6 23.5h11.8c4.4 0 8-3.4 8.2-7.8V28c0-4.3-3.8-7.8-8.3-7.8zM47.3 33.5c-.1 1.5-1.3 2.7-2.8 2.8H30.4c-1.5 0-2.8-1.3-2.8-2.8v-2.8c.1-1.5 1.3-2.7 2.8-2.8h14.1c1.5 0 2.8 1.3 2.8 2.8v2.8z M0.48299999999999954 0.48299999999999954"/></svg>