<svg xmlns="http://www.w3.org/2000/svg" width="100" height="100" viewBox="0 0 100 100"><path d="M24 23h44c2.2 0 4 1.8 4 4v4c0 2.2-1.8 4-4 4H24c-2.2 0-4-1.8-4-4v-4c0-2.2 1.8-4 4-4zm0 18h25c2.2 0 4 1.8 4 4v4c0 2.2-1.8 4-4 4H24c-2.2 0-4-1.8-4-4v-4c0-2.2 1.8-4 4-4zm41.9 11c7.7 0 14 6.3 14 14s-6.3 14-14 14-14-6.3-14-14 6.3-14 14-14zm7.9 10.9c.3-.3.3-1 0-1.3l-1.4-1.3c-.4-.4-1-.4-1.4 0l-7.5 8.4-3.4-3.4c-.4-.4-1-.4-1.4 0l-1.4 1.3c-.4.3-.4.9 0 1.3l4.8 4.7c.4.4.9.6 1.4.6.6 0 1-.2 1.4-.6l8.9-9.7zM24 59h23.2c-.8 2.3-1.2 4.3-1.2 6-.1 2.1.1 4.1.6 6H24c-2.2 0-4-1.8-4-4v-4c0-2.2 1.8-4 4-4z M0.26199999999999934 0.26199999999999934" fill="#fff"/></svg>