<svg xmlns="http://www.w3.org/2000/svg" width="100" height="100" viewBox="0 0 100 100"><title/><path fill="#fff" d="M73.8 20H26.2c-3.4 0-6.2 2.8-6.2 6.2v47.6c0 3.4 2.8 6.2 6.2 6.2h47.6c3.4 0 6.2-2.8 6.2-6.2V26.2c0-3.4-2.8-6.2-6.2-6.2zM42.3 69.1c0 .8-.8 1.4-1.6 1.4H30.4c-.8 0-1.4-.8-1.4-1.6V48.8c0-.8.8-1.4 1.6-1.4H41c.8 0 1.4.8 1.4 1.6v20.1zm28.4.2c0 .8-.8 1.4-1.6 1.4H49.9c-.8 0-1.4-.8-1.4-1.6V48.8c0-.8.8-1.4 1.6-1.4h19.3c.8 0 1.4.8 1.4 1.6v20.3zm.2-29.4c0 .8-.8 1.4-1.6 1.4H30.4c-.8 0-1.4-.8-1.4-1.6v-9c0-.8.8-1.4 1.6-1.4h38.9c.8 0 1.4.8 1.4 1.6v9z M0.25699999999999934 0.25699999999999934"/></svg>