<svg xmlns="http://www.w3.org/2000/svg" width="100" height="100" viewBox="0 0 100 100"><path fill="#fff" d="M79.9 29.3c0-.3-.1-.6-.3-.9l-8.2-8.1c-.1-.2-.4-.3-.7-.3H48.6c-2.9-.1-5.3 2.3-5.4 5.2v26.5c0 2.9 2.4 5.3 5.3 5.3h26.1c2.9.1 5.3-2.3 5.4-5.2V30.7l-.1-1.4zm-23.5 21c0 1.3-1 2.3-2.3 2.3h-4.5c-1.2 0-2.2-1.1-2.2-2.3v-4.5c0-1.3 1-2.3 2.3-2.3h4.5c1.3 0 2.3 1 2.3 2.3l-.1 4.5zm0-12.4c0 1.3-1 2.3-2.3 2.3h-4.5c-1.2 0-2.2-1.1-2.2-2.3v-4.5c0-1.3 1-2.3 2.3-2.3h4.5c1.3 0 2.3 1 2.3 2.3l-.1 4.5zm12.5 12.4c0 1.3-1 2.3-2.3 2.3h-4.5c-1.3 0-2.3-1-2.3-2.3v-4.5c0-1.3 1-2.3 2.3-2.3h4.5c1.3 0 2.3 1 2.3 2.3v4.5zm0-12.4c0 1.3-1 2.3-2.3 2.3h-4.5c-1.3 0-2.3-1-2.3-2.3v-4.5c0-1.3 1-2.3 2.3-2.3h4.5c1.3 0 2.3 1 2.3 2.3v4.5zM42.8 62.7c-2.9 0-5.3-2.4-5.3-5.3V30.1c-3.2 0-5.8 2.6-5.8 5.8v26.6c0 3.2 1.7 5.9 5.8 5.9h25c3.2 0 5.7-2.5 5.8-5.7H42.8zM31.1 74.3c-2.9 0-5.3-2.4-5.3-5.3V41.7c-3.2 0-5.8 2.6-5.8 5.8v26.6c0 3.2 1.7 5.9 5.8 5.9h25c3.2 0 5.7-2.5 5.8-5.7H31.1c.1 0 0 0 0 0z M0.2169999999999993 0.2169999999999993"/></svg>