<svg xmlns="http://www.w3.org/2000/svg" width="100" height="100" viewBox="0 0 100 100"><path fill="#fff" d="M47.9 71.8h-26c-1.1 0-2-.9-2-2v-4c0-1.1.9-2 2-2h25.9c1.1 0 2 .9 2 2v4c.1 1-.7 1.9-1.8 2h-.1zm0-35.8h-26c-1.1 0-2-.9-2-2v-4c0-1.1.9-2 2-2h25.9c1.1 0 2 .9 2 2v4c.1 1-.7 1.9-1.8 2h-.1zm13.5 30.6c.7.7 1.9.7 2.6 0l15.3-15.2c.8-.7.8-1.9.2-2.6l-.2-.2L64 33.3c-.7-.8-1.9-.8-2.6-.2l-.2.2-2.8 2.8c-.8.7-.8 1.9-.2 2.6l.2.2 4.8 4.8c.5.5.5 1.4 0 1.9-.2.2-.6.4-.9.4H22.1c-1.1 0-2.1.9-2.1 2v4c.1 1.1 1 1.9 2.1 2h40.4c.7 0 1.3.6 1.3 1.3 0 .3-.1.7-.4.9L58.6 61c-.8.7-.8 1.9-.2 2.6l.2.2 2.8 2.8z M0.2189999999999993 0.2189999999999993"/></svg>